# Blender 4.5.3 LTS
# www.blender.org
o ElevatorBox
v -0.750000 2.200000 1.000000
v 0.750000 2.200000 1.000000
v -0.750000 3.050000 1.000000
v 0.750000 3.050000 1.000000
v -0.750000 3.050000 0.800000
v 0.750000 3.050000 0.800000
v -0.750000 2.200000 0.800000
v 0.750000 2.200000 0.800000
v -0.750000 -0.000000 -0.700000
v 0.750000 -0.000000 -0.700000
v -0.750000 3.050000 -0.700000
v 0.750000 3.050000 -0.700000
v -0.750000 3.050000 -0.900000
v 0.750000 3.050000 -0.900000
v -0.750000 -0.000000 -0.900000
v 0.750000 -0.000000 -0.900000
v -0.750000 2.850000 0.800000
v 0.750000 2.850000 0.800000
v -0.750000 3.050000 0.800000
v 0.750000 3.050000 0.800000
v -0.750000 3.050000 -0.700000
v 0.750000 3.050000 -0.700000
v -0.750000 2.850000 -0.700000
v 0.750000 2.850000 -0.700000
v -0.750000 0.000000 1.000000
v 0.750000 0.000000 1.000000
v -0.750000 0.200000 1.000000
v 0.750000 0.200000 1.000000
v -0.750000 0.200000 -0.700000
v 0.750000 0.200000 -0.700000
v -0.750000 -0.000000 -0.700000
v 0.750000 -0.000000 -0.700000
v 0.750000 0.000000 1.000000
v 0.950000 0.000000 1.000000
v 0.750000 3.050000 1.000000
v 0.950000 3.050000 1.000000
v 0.750000 3.050000 -0.900000
v 0.950000 3.050000 -0.900000
v 0.750000 -0.000000 -0.900000
v 0.950000 -0.000000 -0.900000
v -0.950000 0.000000 1.000000
v -0.750000 0.000000 1.000000
v -0.950000 3.050000 1.000000
v -0.750000 3.050000 1.000000
v -0.950000 3.050000 -0.900000
v -0.750000 3.050000 -0.900000
v -0.950000 -0.000000 -0.900000
v -0.750000 -0.000000 -0.900000
v -0.750000 0.200000 1.000000
v -0.400000 0.200000 1.000000
v -0.750000 2.200000 1.000000
v -0.400000 2.200000 1.000000
v -0.750000 2.200000 0.800000
v -0.400000 2.200000 0.800000
v -0.750000 0.200000 0.800000
v -0.400000 0.200000 0.800000
v 0.400000 0.200000 1.000000
v 0.750000 0.200000 1.000000
v 0.400000 2.200000 1.000000
v 0.750000 2.200000 1.000000
v 0.400000 2.200000 0.800000
v 0.750000 2.200000 0.800000
v 0.400000 0.200000 0.800000
v 0.750000 0.200000 0.800000
vn -0.0000 -0.0000 1.0000
vn -0.0000 1.0000 -0.0000
vn -0.0000 -0.0000 -1.0000
vn -0.0000 -1.0000 -0.0000
vn 1.0000 -0.0000 -0.0000
vn -1.0000 -0.0000 -0.0000
vt 0.655108 0.346748
vt 0.876446 0.346768
vt 0.876435 0.472194
vt 0.655096 0.472174
vt 0.878327 0.249809
vt 0.878327 0.028470
vt 0.907839 0.028470
vt 0.907839 0.249809
vt 0.926549 0.029336
vt 0.956061 0.029336
vt 0.956061 0.154761
vt 0.926549 0.154761
vt 0.926549 0.029335
vt 0.956061 0.029335
vt 0.054218 0.029849
vt 0.275557 0.029849
vt 0.275557 0.479904
vt 0.054218 0.479904
vt 0.601721 0.030564
vt 0.631233 0.030564
vt 0.631233 0.480620
vt 0.601721 0.480620
vt 0.655897 0.966981
vt 0.655897 0.745642
vt 0.877235 0.745642
vt 0.877235 0.966981
vt 0.655896 0.745642
vt 0.655257 0.481749
vt 0.876596 0.481749
vt 0.876596 0.732600
vt 0.655257 0.732600
vt 0.828815 0.279321
vt 0.828815 0.028470
vt 0.858327 0.028470
vt 0.858327 0.279321
vt 0.780090 0.028470
vt 0.809602 0.028470
vt 0.809602 0.308833
vt 0.780090 0.308833
vt 0.631232 0.480620
vt 0.631232 0.030564
vt 0.295156 0.031770
vt 0.575518 0.031770
vt 0.575518 0.481825
vt 0.295156 0.481825
vt 0.653183 0.028623
vt 0.704829 0.028623
vt 0.704829 0.323741
vt 0.653183 0.323741
vt 0.655443 0.346413
vt 0.876111 0.346433
vt 0.876100 0.472529
vt 0.655432 0.472509
vt 0.726631 0.028470
vt 0.756143 0.028470
vt 0.756143 0.323588
vt 0.726631 0.323588
s 1
f 1/1/1 2/2/1 4/3/1 3/4/1
f 3/5/2 4/6/2 6/7/2 5/8/2
f 5/1/3 6/2/3 8/3/3 7/4/3
f 7/5/4 8/6/4 2/7/4 1/8/4
f 2/9/5 8/10/5 6/11/5 4/12/5
f 7/13/6 1/14/6 3/11/6 5/12/6
f 9/15/1 10/16/1 12/17/1 11/18/1
f 11/5/2 12/6/2 14/7/2 13/8/2
f 13/15/3 14/16/3 16/17/3 15/18/3
f 15/5/4 16/6/4 10/7/4 9/8/4
f 10/19/5 16/20/5 14/21/5 12/22/5
f 15/19/6 9/20/6 11/21/6 13/22/6
f 17/5/1 18/6/1 20/7/1 19/8/1
f 19/23/2 20/24/2 22/25/2 21/26/2
f 21/5/3 22/6/3 24/7/3 23/8/3
f 23/23/4 24/27/4 18/25/4 17/26/4
f 18/7/5 24/8/5 22/5/5 20/6/5
f 23/7/6 17/8/6 19/5/6 21/6/6
f 25/5/1 26/6/1 28/7/1 27/8/1
f 27/28/2 28/29/2 30/30/2 29/31/2
f 29/5/3 30/6/3 32/7/3 31/8/3
f 31/28/4 32/29/4 26/30/4 25/31/4
f 26/32/5 32/33/5 30/34/5 28/35/5
f 31/32/6 25/33/6 27/34/6 29/35/6
f 33/21/1 34/22/1 36/19/1 35/20/1
f 35/36/2 36/37/2 38/38/2 37/39/2
f 37/40/3 38/22/3 40/19/3 39/41/3
f 39/36/4 40/37/4 34/38/4 33/39/4
f 34/42/5 40/43/5 38/44/5 36/45/5
f 39/42/6 33/43/6 35/44/6 37/45/6
f 41/21/1 42/22/1 44/19/1 43/20/1
f 43/36/2 44/37/2 46/38/2 45/39/2
f 45/21/3 46/22/3 48/19/3 47/20/3
f 47/36/4 48/37/4 42/38/4 41/39/4
f 42/42/5 48/43/5 46/44/5 44/45/5
f 47/42/6 41/43/6 43/44/6 45/45/6
f 49/46/1 50/47/1 52/48/1 51/49/1
f 51/50/2 52/51/2 54/52/2 53/53/2
f 53/46/3 54/47/3 56/48/3 55/49/3
f 55/50/4 56/51/4 50/52/4 49/53/4
f 50/54/5 56/55/5 54/56/5 52/57/5
f 55/54/6 49/55/6 51/56/6 53/57/6
f 57/46/1 58/47/1 60/48/1 59/49/1
f 59/50/2 60/51/2 62/52/2 61/53/2
f 61/46/3 62/47/3 64/48/3 63/49/3
f 63/50/4 64/51/4 58/52/4 57/53/4
f 58/54/5 64/55/5 62/56/5 60/57/5
f 63/54/6 57/55/6 59/56/6 61/57/6
