# Blender 4.5.3 LTS
# www.blender.org
mtllib Lever.mtl
o Lever
v 0.059255 -0.000000 -0.100000
v 0.059255 -0.034202 -0.093969
v 0.059255 -0.064279 -0.076604
v 0.059255 -0.086603 -0.050000
v 0.059255 -0.098481 -0.017365
v 0.059255 -0.098481 0.017365
v 0.059255 -0.086602 0.050000
v 0.059255 -0.064279 0.076604
v 0.059255 -0.034202 0.093969
v 0.059255 0.000000 0.100000
v 0.059255 0.034202 0.093969
v 0.059255 0.064279 0.076604
v 0.059255 0.086603 0.050000
v 0.059255 0.098481 0.017365
v 0.059255 0.098481 -0.017365
v 0.059255 0.086602 -0.050000
v 0.059255 0.064279 -0.076604
v 0.059255 0.034202 -0.093969
v 0.000000 -0.000000 -0.100000
v 0.000000 -0.034202 -0.093969
v 0.000000 -0.064279 -0.076604
v 0.000000 -0.086603 -0.050000
v 0.000000 -0.098481 -0.017365
v 0.000000 -0.098481 0.017365
v 0.000000 -0.086602 0.050000
v 0.000000 -0.064279 0.076604
v 0.000000 -0.034202 0.093969
v 0.000000 0.000000 0.100000
v 0.000000 0.034202 0.093969
v 0.000000 0.064279 0.076604
v 0.000000 0.086603 0.050000
v 0.000000 0.098481 0.017365
v 0.000000 0.098481 -0.017365
v 0.000000 0.086602 -0.050000
v 0.000000 0.064279 -0.076604
v 0.000000 0.034202 -0.093969
v 0.016813 -0.000000 -0.100000
v 0.016813 -0.034202 -0.093969
v 0.016813 -0.064279 -0.076604
v 0.016813 -0.086603 -0.050000
v 0.016813 -0.098481 -0.017365
v 0.016813 -0.098481 0.017365
v 0.016813 -0.086602 0.050000
v 0.016813 -0.064279 0.076604
v 0.016813 -0.034202 0.093969
v 0.016813 0.000000 0.100000
v 0.016813 0.034202 0.093969
v 0.016813 0.064279 0.076604
v 0.016813 0.086603 0.050000
v 0.016813 0.098481 0.017365
v 0.016813 0.098481 -0.017365
v 0.016813 0.086602 -0.050000
v 0.016813 0.064279 -0.076604
v 0.016813 0.034202 -0.093969
v 0.016813 0.394110 0.017365
v 0.000000 0.394110 0.017365
v 0.016813 0.394110 -0.017365
v 0.000000 0.394110 -0.017365
v 0.059255 -0.048868 -0.134263
v 0.059255 -0.000000 -0.142879
v 0.016813 -0.000000 -0.142879
v 0.059255 -0.091841 -0.109452
v 0.059255 -0.123737 -0.071440
v 0.059255 -0.140709 -0.024811
v 0.059255 -0.140709 0.024811
v 0.059255 -0.123737 0.071440
v 0.059255 -0.091841 0.109452
v 0.059255 -0.048868 0.134263
v 0.059255 0.000000 0.142879
v 0.059255 0.048868 0.134263
v 0.059255 0.091841 0.109452
v 0.059255 0.123737 0.071440
v 0.059255 0.140709 0.024811
v 0.059255 0.140709 -0.024811
v 0.059255 0.123737 -0.071440
v 0.059255 0.091841 -0.109452
v 0.059255 0.048868 -0.134263
v 0.016813 -0.048868 -0.134263
v 0.016813 -0.091841 -0.109452
v 0.016813 -0.123737 -0.071440
v 0.016813 -0.140709 -0.024811
v 0.016813 -0.140709 0.024811
v 0.016813 -0.123737 0.071440
v 0.016813 -0.091841 0.109452
v 0.016813 -0.048868 0.134263
v 0.016813 0.000000 0.142879
v 0.016813 0.048868 0.134263
v 0.016813 0.091841 0.109452
v 0.016813 0.123737 0.071440
v 0.016813 0.140709 0.024811
v 0.016813 0.140709 -0.024811
v 0.016813 0.123737 -0.071440
v 0.016813 0.091841 -0.109452
v 0.016813 0.048868 -0.134263
v -0.059255 -0.000000 -0.100000
v -0.059255 -0.034202 -0.093969
v -0.059255 -0.064279 -0.076604
v -0.059255 -0.086603 -0.050000
v -0.059255 -0.098481 -0.017365
v -0.059255 -0.098481 0.017365
v -0.059255 -0.086602 0.050000
v -0.059255 -0.064279 0.076604
v -0.059255 -0.034202 0.093969
v -0.059255 0.000000 0.100000
v -0.059255 0.034202 0.093969
v -0.059255 0.064279 0.076604
v -0.059255 0.086603 0.050000
v -0.059255 0.098481 0.017365
v -0.059255 0.098481 -0.017365
v -0.059255 0.086602 -0.050000
v -0.059255 0.064279 -0.076604
v -0.059255 0.034202 -0.093969
v -0.016813 -0.000000 -0.100000
v -0.016813 -0.034202 -0.093969
v -0.016813 -0.064279 -0.076604
v -0.016813 -0.086603 -0.050000
v -0.016813 -0.098481 -0.017365
v -0.016813 -0.098481 0.017365
v -0.016813 -0.086602 0.050000
v -0.016813 -0.064279 0.076604
v -0.016813 -0.034202 0.093969
v -0.016813 0.000000 0.100000
v -0.016813 0.034202 0.093969
v -0.016813 0.064279 0.076604
v -0.016813 0.086603 0.050000
v -0.016813 0.098481 0.017365
v -0.016813 0.098481 -0.017365
v -0.016813 0.086602 -0.050000
v -0.016813 0.064279 -0.076604
v -0.016813 0.034202 -0.093969
v -0.016813 0.394110 0.017365
v -0.016813 0.394110 -0.017365
v -0.059255 -0.048868 -0.134263
v -0.059255 -0.000000 -0.142879
v -0.016813 -0.000000 -0.142879
v -0.059255 -0.091841 -0.109452
v -0.059255 -0.123737 -0.071440
v -0.059255 -0.140709 -0.024811
v -0.059255 -0.140709 0.024811
v -0.059255 -0.123737 0.071440
v -0.059255 -0.091841 0.109452
v -0.059255 -0.048868 0.134263
v -0.059255 0.000000 0.142879
v -0.059255 0.048868 0.134263
v -0.059255 0.091841 0.109452
v -0.059255 0.123737 0.071440
v -0.059255 0.140709 0.024811
v -0.059255 0.140709 -0.024811
v -0.059255 0.123737 -0.071440
v -0.059255 0.091841 -0.109452
v -0.059255 0.048868 -0.134263
v -0.016813 -0.048868 -0.134263
v -0.016813 -0.091841 -0.109452
v -0.016813 -0.123737 -0.071440
v -0.016813 -0.140709 -0.024811
v -0.016813 -0.140709 0.024811
v -0.016813 -0.123737 0.071440
v -0.016813 -0.091841 0.109452
v -0.016813 -0.048868 0.134263
v -0.016813 0.000000 0.142879
v -0.016813 0.048868 0.134263
v -0.016813 0.091841 0.109452
v -0.016813 0.123737 0.071440
v -0.016813 0.140709 0.024811
v -0.016813 0.140709 -0.024811
v -0.016813 0.123737 -0.071440
v -0.016813 0.091841 -0.109452
v -0.016813 0.048868 -0.134263
v 0.000000 0.363016 -0.000000
v 0.036180 0.390655 0.026286
v -0.013819 0.390655 0.042532
v -0.044721 0.390655 -0.000000
v -0.013819 0.390655 -0.042533
v 0.036180 0.390655 -0.026286
v 0.013819 0.435377 0.042532
v -0.036180 0.435377 0.026286
v -0.036180 0.435377 -0.026286
v 0.013819 0.435377 -0.042533
v 0.044721 0.435377 -0.000000
v 0.000000 0.463016 -0.000000
v -0.008123 0.370483 0.025000
v 0.021266 0.370483 0.015451
v 0.013143 0.386729 0.040451
v 0.042532 0.386729 -0.000000
v 0.021266 0.370483 -0.015451
v -0.026287 0.370483 -0.000000
v -0.034410 0.386729 0.025000
v -0.008123 0.370483 -0.025000
v -0.034410 0.386729 -0.025000
v 0.013143 0.386729 -0.040451
v 0.047553 0.413016 0.015451
v 0.047553 0.413016 -0.015451
v 0.000000 0.413016 0.050000
v 0.029389 0.413016 0.040451
v -0.047553 0.413016 0.015451
v -0.029389 0.413016 0.040451
v -0.029389 0.413016 -0.040451
v -0.047553 0.413016 -0.015451
v 0.029389 0.413016 -0.040451
v 0.000000 0.413016 -0.050000
v 0.034410 0.439303 0.025000
v -0.013143 0.439303 0.040451
v -0.042532 0.439303 -0.000000
v -0.013143 0.439303 -0.040451
v 0.034410 0.439303 -0.025000
v 0.008123 0.455549 0.025000
v 0.026287 0.455549 -0.000000
v -0.021266 0.455549 0.015451
v -0.021266 0.455549 -0.015451
v 0.008123 0.455549 -0.025000
vn 1.0000 -0.0000 -0.0000
vn -1.0000 -0.0000 -0.0000
vn -0.0000 0.1736 -0.9848
vn -0.0000 0.5000 -0.8660
vn -0.0000 0.7660 -0.6428
vn -0.0000 0.9397 -0.3420
vn -0.0000 -0.0000 1.0000
vn -0.0000 0.9397 0.3420
vn -0.0000 0.7660 0.6428
vn -0.0000 0.5000 0.8660
vn -0.0000 0.1736 0.9848
vn -0.0000 -0.1736 0.9848
vn -0.0000 -0.5000 0.8660
vn -0.0000 -0.7660 0.6428
vn -0.0000 -0.9397 0.3420
vn -0.0000 -1.0000 -0.0000
vn -0.0000 -0.9397 -0.3420
vn -0.0000 -0.7660 -0.6428
vn -0.0000 -0.5000 -0.8660
vn -0.0000 -0.1736 -0.9848
vn -0.0000 1.0000 -0.0000
vn -0.0000 -0.0000 -1.0000
vn 0.1024 -0.9435 0.3151
vn 0.7002 -0.6617 0.2680
vn -0.2680 -0.9435 0.1947
vn -0.2680 -0.9435 -0.1947
vn 0.1024 -0.9435 -0.3151
vn 0.9050 -0.3304 0.2680
vn 0.0247 -0.3304 0.9435
vn -0.8897 -0.3304 0.3151
vn -0.5746 -0.3304 -0.7488
vn 0.5346 -0.3304 -0.7779
vn 0.8026 -0.1256 0.5831
vn -0.3066 -0.1256 0.9435
vn -0.9921 -0.1256 -0.0000
vn -0.3066 -0.1256 -0.9435
vn 0.8026 -0.1256 -0.5831
vn 0.4089 0.6617 0.6284
vn -0.4713 0.6617 0.5831
vn -0.7002 0.6617 -0.2680
vn 0.0385 0.6617 -0.7488
vn 0.7240 0.6617 -0.1947
vn 0.2680 0.9435 -0.1947
vn 0.4911 0.7947 -0.3568
vn 0.4089 0.6617 -0.6284
vn -0.1024 0.9435 -0.3151
vn -0.1876 0.7947 -0.5773
vn -0.4713 0.6617 -0.5831
vn -0.3313 0.9435 -0.0000
vn -0.6071 0.7947 -0.0000
vn -0.7002 0.6617 0.2680
vn -0.1024 0.9435 0.3151
vn -0.1876 0.7947 0.5773
vn 0.0385 0.6617 0.7488
vn 0.2680 0.9435 0.1947
vn 0.4911 0.7947 0.3568
vn 0.7240 0.6617 0.1947
vn 0.8897 0.3304 -0.3151
vn 0.7947 0.1876 -0.5773
vn 0.5746 0.3304 -0.7488
vn -0.0247 0.3304 -0.9435
vn -0.3035 0.1876 -0.9342
vn -0.5346 0.3304 -0.7779
vn -0.9050 0.3304 -0.2680
vn -0.9822 0.1876 -0.0000
vn -0.9050 0.3304 0.2680
vn -0.5346 0.3304 0.7779
vn -0.3035 0.1876 0.9342
vn -0.0247 0.3304 0.9435
vn 0.5746 0.3304 0.7488
vn 0.7947 0.1876 0.5773
vn 0.8897 0.3304 0.3151
vn 0.3066 0.1256 -0.9435
vn 0.3035 -0.1876 -0.9342
vn 0.0247 -0.3304 -0.9435
vn -0.8026 0.1256 -0.5831
vn -0.7947 -0.1876 -0.5773
vn -0.8897 -0.3304 -0.3151
vn -0.8026 0.1256 0.5831
vn -0.7947 -0.1876 0.5773
vn -0.5746 -0.3304 0.7488
vn 0.3066 0.1256 0.9435
vn 0.3035 -0.1876 0.9342
vn 0.5346 -0.3304 0.7779
vn 0.9921 0.1256 -0.0000
vn 0.9822 -0.1876 -0.0000
vn 0.9050 -0.3304 -0.2680
vn 0.4713 -0.6617 -0.5831
vn 0.1876 -0.7947 -0.5773
vn -0.0385 -0.6617 -0.7488
vn -0.4089 -0.6617 -0.6284
vn -0.4911 -0.7947 -0.3568
vn -0.7240 -0.6617 -0.1947
vn -0.7240 -0.6617 0.1947
vn -0.4911 -0.7947 0.3568
vn -0.4089 -0.6617 0.6284
vn 0.7002 -0.6617 -0.2680
vn 0.6071 -0.7947 -0.0000
vn 0.3313 -0.9435 -0.0000
vn -0.0385 -0.6617 0.7488
vn 0.1876 -0.7947 0.5773
vn 0.4713 -0.6617 0.5831
vt 0.167915 0.475526
vt 0.250000 0.490000
vt 0.722222 0.820934
vt 0.777778 0.820934
vt 0.457846 0.370000
vt 0.486354 0.291676
vt 0.095731 0.433851
vt 0.666667 0.820934
vt 0.404269 0.433851
vt 0.042154 0.370000
vt 0.611111 0.820934
vt 0.332085 0.475526
vt 0.013646 0.291676
vt 0.555555 0.820934
vt 0.013646 0.208324
vt 0.500000 0.820934
vt 0.444444 0.820934
vt 0.042154 0.130000
vt 0.095731 0.066149
vt 0.167915 0.024474
vt 0.250000 0.010000
vt 0.332085 0.024474
vt 0.404269 0.066149
vt 0.457846 0.130000
vt 0.486354 0.208324
vt 0.388889 0.820934
vt 0.055555 0.750000
vt 0.055555 0.820934
vt -0.000000 0.820934
vt -0.000000 0.750000
vt 0.111111 0.750000
vt 0.111111 0.820934
vt 0.166666 0.750000
vt 0.166666 0.820934
vt 0.222222 0.750000
vt 0.222222 0.820934
vt 0.277778 0.750000
vt 0.277778 0.820934
vt 0.333333 0.750000
vt 0.333333 0.820934
vt 0.388889 0.750000
vt 0.444444 0.750000
vt 0.500000 0.750000
vt 0.555555 0.750000
vt 0.611111 0.750000
vt 0.666667 0.750000
vt 0.722222 0.750000
vt 0.777778 0.750000
vt 0.833333 0.750000
vt 0.833333 0.820934
vt 0.888889 0.750000
vt 0.888889 0.820934
vt 0.944444 0.750000
vt 0.944444 0.820934
vt 1.000000 0.750000
vt 1.000000 0.820934
vt 0.000000 0.000000
vt 1.000000 1.000000
vt 0.944444 1.000000
vt 0.888889 1.000000
vt 0.833333 1.000000
vt 0.777778 1.000000
vt 0.722222 1.000000
vt 0.666667 1.000000
vt 0.611111 1.000000
vt 0.555555 1.000000
vt 0.500000 1.000000
vt 0.444444 1.000000
vt 0.388889 1.000000
vt 0.333333 1.000000
vt 0.277778 1.000000
vt 0.222222 1.000000
vt 0.166666 1.000000
vt 0.111111 1.000000
vt 0.055555 1.000000
vt -0.000000 1.000000
vt 0.181819 0.000000
vt 0.227273 0.078731
vt 0.136365 0.078731
vt 0.272728 0.157461
vt 0.318182 0.078731
vt 0.363637 0.157461
vt 0.909091 0.000000
vt 0.954545 0.078731
vt 0.863636 0.078731
vt 0.727273 0.000000
vt 0.772727 0.078731
vt 0.681818 0.078731
vt 0.545455 0.000000
vt 0.590909 0.078731
vt 0.500000 0.078731
vt 0.318182 0.236191
vt 0.090910 0.157461
vt 0.181819 0.157461
vt 0.136365 0.236191
vt 0.818182 0.157461
vt 0.909091 0.157461
vt 0.863636 0.236191
vt 0.636364 0.157461
vt 0.727273 0.157461
vt 0.681818 0.236191
vt 0.454546 0.157461
vt 0.545455 0.157461
vt 0.500000 0.236191
vt 0.227273 0.236191
vt 0.045455 0.236191
vt 0.772727 0.236191
vt 0.590909 0.236191
vt 0.409092 0.236191
vt 0.181819 0.314921
vt 0.272728 0.314921
vt 0.227273 0.393651
vt 0.000000 0.314921
vt 0.090910 0.314921
vt 0.045455 0.393651
vt 0.727273 0.314921
vt 0.818182 0.314921
vt 0.772727 0.393651
vt 0.545455 0.314921
vt 0.636364 0.314921
vt 0.590909 0.393651
vt 0.363637 0.314921
vt 0.454546 0.314921
vt 0.409092 0.393651
vt 0.500000 0.393651
vt 0.454546 0.472382
vt 0.681818 0.393651
vt 0.636364 0.472382
vt 0.863636 0.393651
vt 0.818182 0.472382
vt 0.909091 0.314921
vt 0.136365 0.393651
vt 0.090910 0.472382
vt 0.318182 0.393651
vt 0.272728 0.472382
vt 0.954545 0.236191
vt 1.000000 0.157461
vt 0.409092 0.078731
vt 0.363637 0.000000
s 1
f 18/1/1 1/2/1 60/2/1 77/1/1
f 42/3/2 41/4/2 81/4/2 82/3/2
f 4/5/1 5/6/1 64/6/1 63/5/1
f 17/7/1 18/1/1 77/1/1 76/7/1
f 43/8/2 42/3/2 82/3/2 83/8/2
f 3/9/1 4/5/1 63/5/1 62/9/1
f 16/10/1 17/7/1 76/7/1 75/10/1
f 44/11/2 43/8/2 83/8/2 84/11/2
f 2/12/1 3/9/1 62/9/1 59/12/1
f 15/13/1 16/10/1 75/10/1 74/13/1
f 45/14/2 44/11/2 84/11/2 85/14/2
f 14/15/1 15/13/1 74/13/1 73/15/1
f 46/16/2 45/14/2 85/14/2 86/16/2
f 1/2/1 2/12/1 59/12/1 60/2/1
f 47/17/2 46/16/2 86/16/2 87/17/2
f 13/18/1 14/15/1 73/15/1 72/18/1
f 2/12/1 1/2/1 18/1/1 17/7/1 16/10/1 15/13/1 14/15/1 13/18/1 12/19/1 11/20/1 10/21/1 9/22/1 8/23/1 7/24/1 6/25/1 5/6/1 4/5/1 3/9/1
f 12/19/1 13/18/1 72/18/1 71/19/1
f 48/26/2 47/17/2 87/17/2 88/26/2
f 36/27/3 54/28/3 37/29/3 19/30/3
f 35/31/4 53/32/4 54/28/4 36/27/4
f 34/33/5 52/34/5 53/32/5 35/31/5
f 33/35/6 51/36/6 52/34/6 34/33/6
f 32/37/7 50/38/7 55/38/7 56/37/7
f 31/39/8 49/40/8 50/38/8 32/37/8
f 30/41/9 48/26/9 49/40/9 31/39/9
f 29/42/10 47/17/10 48/26/10 30/41/10
f 28/43/11 46/16/11 47/17/11 29/42/11
f 27/44/12 45/14/12 46/16/12 28/43/12
f 26/45/13 44/11/13 45/14/13 27/44/13
f 25/46/14 43/8/14 44/11/14 26/45/14
f 24/47/15 42/3/15 43/8/15 25/46/15
f 23/48/16 41/4/16 42/3/16 24/47/16
f 22/49/17 40/50/17 41/4/17 23/48/17
f 21/51/18 39/52/18 40/50/18 22/49/18
f 20/53/19 38/54/19 39/52/19 21/51/19
f 19/55/20 37/56/20 38/54/20 20/53/20
f 56/37/21 55/38/21 57/36/21 58/35/21
f 33/57/2 32/57/2 56/57/2 58/57/2
f 51/36/22 33/35/22 58/35/22 57/36/22
f 50/38/1 51/36/1 57/36/1 55/38/1
f 61/56/20 60/58/20 59/59/20 78/54/20
f 78/54/19 59/59/19 62/60/19 79/52/19
f 79/52/18 62/60/18 63/61/18 80/50/18
f 80/50/17 63/61/17 64/62/17 81/4/17
f 81/4/16 64/62/16 65/63/16 82/3/16
f 82/3/15 65/63/15 66/64/15 83/8/15
f 83/8/14 66/64/14 67/65/14 84/11/14
f 84/11/13 67/65/13 68/66/13 85/14/13
f 85/14/12 68/66/12 69/67/12 86/16/12
f 86/16/11 69/67/11 70/68/11 87/17/11
f 87/17/10 70/68/10 71/69/10 88/26/10
f 88/26/9 71/69/9 72/70/9 89/40/9
f 89/40/8 72/70/8 73/71/8 90/38/8
f 90/38/21 73/71/21 74/72/21 91/36/21
f 91/36/6 74/72/6 75/73/6 92/34/6
f 92/34/5 75/73/5 76/74/5 93/32/5
f 93/32/4 76/74/4 77/75/4 94/28/4
f 94/28/3 77/75/3 60/76/3 61/29/3
f 37/29/2 54/28/2 94/28/2 61/29/2
f 5/6/1 6/25/1 65/25/1 64/6/1
f 41/4/2 40/50/2 80/50/2 81/4/2
f 54/28/2 53/32/2 93/32/2 94/28/2
f 6/25/1 7/24/1 66/24/1 65/25/1
f 40/50/2 39/52/2 79/52/2 80/50/2
f 53/32/2 52/34/2 92/34/2 93/32/2
f 7/24/1 8/23/1 67/23/1 66/24/1
f 39/52/2 38/54/2 78/54/2 79/52/2
f 52/34/2 51/36/2 91/36/2 92/34/2
f 8/23/1 9/22/1 68/22/1 67/23/1
f 38/54/2 37/56/2 61/56/2 78/54/2
f 51/36/2 50/38/2 90/38/2 91/36/2
f 9/22/1 10/21/1 69/21/1 68/22/1
f 50/38/2 49/40/2 89/40/2 90/38/2
f 10/21/1 11/20/1 70/20/1 69/21/1
f 49/40/2 48/26/2 88/26/2 89/40/2
f 11/20/1 12/19/1 71/19/1 70/20/1
f 112/1/2 151/1/2 134/2/2 95/2/2
f 118/3/1 156/3/1 155/4/1 117/4/1
f 98/5/2 137/5/2 138/6/2 99/6/2
f 111/7/2 150/7/2 151/1/2 112/1/2
f 119/8/1 157/8/1 156/3/1 118/3/1
f 97/9/2 136/9/2 137/5/2 98/5/2
f 110/10/2 149/10/2 150/7/2 111/7/2
f 120/11/1 158/11/1 157/8/1 119/8/1
f 96/12/2 133/12/2 136/9/2 97/9/2
f 109/13/2 148/13/2 149/10/2 110/10/2
f 121/14/1 159/14/1 158/11/1 120/11/1
f 108/15/2 147/15/2 148/13/2 109/13/2
f 122/16/1 160/16/1 159/14/1 121/14/1
f 95/2/2 134/2/2 133/12/2 96/12/2
f 123/17/1 161/17/1 160/16/1 122/16/1
f 107/18/2 146/18/2 147/15/2 108/15/2
f 96/12/2 97/9/2 98/5/2 99/6/2 100/25/2 101/24/2 102/23/2 103/22/2 104/21/2 105/20/2 106/19/2 107/18/2 108/15/2 109/13/2 110/10/2 111/7/2 112/1/2 95/2/2
f 106/19/2 145/19/2 146/18/2 107/18/2
f 124/26/1 162/26/1 161/17/1 123/17/1
f 36/27/3 19/30/3 113/29/3 130/28/3
f 35/31/4 36/27/4 130/28/4 129/32/4
f 34/33/5 35/31/5 129/32/5 128/34/5
f 33/35/6 34/33/6 128/34/6 127/36/6
f 32/37/7 56/37/7 131/38/7 126/38/7
f 31/39/8 32/37/8 126/38/8 125/40/8
f 30/41/9 31/39/9 125/40/9 124/26/9
f 29/42/10 30/41/10 124/26/10 123/17/10
f 28/43/11 29/42/11 123/17/11 122/16/11
f 27/44/12 28/43/12 122/16/12 121/14/12
f 26/45/13 27/44/13 121/14/13 120/11/13
f 25/46/14 26/45/14 120/11/14 119/8/14
f 24/47/15 25/46/15 119/8/15 118/3/15
f 23/48/16 24/47/16 118/3/16 117/4/16
f 22/49/17 23/48/17 117/4/17 116/50/17
f 21/51/18 22/49/18 116/50/18 115/52/18
f 20/53/19 21/51/19 115/52/19 114/54/19
f 19/55/20 20/53/20 114/54/20 113/56/20
f 56/37/21 58/35/21 132/36/21 131/38/21
f 127/36/22 132/36/22 58/35/22 33/35/22
f 126/38/2 131/38/2 132/36/2 127/36/2
f 135/56/20 152/54/20 133/59/20 134/58/20
f 152/54/19 153/52/19 136/60/19 133/59/19
f 153/52/18 154/50/18 137/61/18 136/60/18
f 154/50/17 155/4/17 138/62/17 137/61/17
f 155/4/16 156/3/16 139/63/16 138/62/16
f 156/3/15 157/8/15 140/64/15 139/63/15
f 157/8/14 158/11/14 141/65/14 140/64/14
f 158/11/13 159/14/13 142/66/13 141/65/13
f 159/14/12 160/16/12 143/67/12 142/66/12
f 160/16/11 161/17/11 144/68/11 143/67/11
f 161/17/10 162/26/10 145/69/10 144/68/10
f 162/26/9 163/40/9 146/70/9 145/69/9
f 163/40/8 164/38/8 147/71/8 146/70/8
f 164/38/21 165/36/21 148/72/21 147/71/21
f 165/36/6 166/34/6 149/73/6 148/72/6
f 166/34/5 167/32/5 150/74/5 149/73/5
f 167/32/4 168/28/4 151/75/4 150/74/4
f 168/28/3 135/29/3 134/76/3 151/75/3
f 113/29/1 135/29/1 168/28/1 130/28/1
f 99/6/2 138/6/2 139/25/2 100/25/2
f 117/4/1 155/4/1 154/50/1 116/50/1
f 130/28/1 168/28/1 167/32/1 129/32/1
f 100/25/2 139/25/2 140/24/2 101/24/2
f 116/50/1 154/50/1 153/52/1 115/52/1
f 129/32/1 167/32/1 166/34/1 128/34/1
f 101/24/2 140/24/2 141/23/2 102/23/2
f 115/52/1 153/52/1 152/54/1 114/54/1
f 128/34/1 166/34/1 165/36/1 127/36/1
f 102/23/2 141/23/2 142/22/2 103/22/2
f 114/54/1 152/54/1 135/56/1 113/56/1
f 127/36/1 165/36/1 164/38/1 126/38/1
f 103/22/2 142/22/2 143/21/2 104/21/2
f 126/38/1 164/38/1 163/40/1 125/40/1
f 104/21/2 143/21/2 144/20/2 105/20/2
f 125/40/1 163/40/1 162/26/1 124/26/1
f 105/20/2 144/20/2 145/19/2 106/19/2
f 169/77/23 182/78/23 181/79/23
f 170/80/24 182/81/24 184/82/24
f 169/83/25 181/84/25 186/85/25
f 169/86/26 186/87/26 188/88/26
f 169/89/27 188/90/27 185/91/27
f 170/80/28 184/82/28 191/92/28
f 171/93/29 183/94/29 193/95/29
f 172/96/30 187/97/30 195/98/30
f 173/99/31 189/100/31 197/101/31
f 174/102/32 190/103/32 199/104/32
f 170/80/33 191/92/33 194/105/33
f 171/93/34 193/95/34 196/106/34
f 172/96/35 195/98/35 198/107/35
f 173/99/36 197/101/36 200/108/36
f 174/102/37 199/104/37 192/109/37
f 175/110/38 201/111/38 206/112/38
f 176/113/39 202/114/39 208/115/39
f 177/116/40 203/117/40 209/118/40
f 178/119/41 204/120/41 210/121/41
f 179/122/42 205/123/42 207/124/42
f 207/124/43 210/125/43 180/126/43
f 207/124/44 205/123/44 210/125/44
f 205/123/45 178/119/45 210/125/45
f 210/121/46 209/127/46 180/128/46
f 210/121/47 204/120/47 209/127/47
f 204/120/48 177/116/48 209/127/48
f 209/118/49 208/129/49 180/130/49
f 209/118/50 203/117/50 208/129/50
f 203/117/51 176/131/51 208/129/51
f 208/115/52 206/132/52 180/133/52
f 208/115/53 202/114/53 206/132/53
f 202/114/54 175/110/54 206/132/54
f 206/112/55 207/134/55 180/135/55
f 206/112/56 201/111/56 207/134/56
f 201/111/57 179/122/57 207/134/57
f 192/109/58 205/123/58 179/122/58
f 192/109/59 199/104/59 205/123/59
f 199/104/60 178/119/60 205/123/60
f 200/108/61 204/120/61 178/119/61
f 200/108/62 197/101/62 204/120/62
f 197/101/63 177/116/63 204/120/63
f 198/107/64 203/117/64 177/116/64
f 198/107/65 195/98/65 203/117/65
f 195/98/66 176/131/66 203/117/66
f 196/106/67 202/114/67 176/113/67
f 196/106/68 193/95/68 202/114/68
f 193/95/69 175/110/69 202/114/69
f 194/105/70 201/111/70 175/110/70
f 194/105/71 191/92/71 201/111/71
f 191/92/72 179/122/72 201/111/72
f 199/104/73 200/108/73 178/119/73
f 199/104/74 190/103/74 200/108/74
f 190/103/75 173/99/75 200/108/75
f 197/101/76 198/107/76 177/116/76
f 197/101/77 189/100/77 198/107/77
f 189/100/78 172/96/78 198/107/78
f 195/98/79 196/136/79 176/131/79
f 195/98/80 187/97/80 196/136/80
f 187/97/81 171/137/81 196/136/81
f 193/95/82 194/105/82 175/110/82
f 193/95/83 183/94/83 194/105/83
f 183/94/84 170/80/84 194/105/84
f 191/92/85 192/109/85 179/122/85
f 191/92/86 184/82/86 192/109/86
f 184/82/87 174/102/87 192/109/87
f 185/91/88 190/103/88 174/102/88
f 185/91/89 188/90/89 190/103/89
f 188/90/90 173/99/90 190/103/90
f 188/88/91 189/100/91 173/99/91
f 188/88/92 186/87/92 189/100/92
f 186/87/93 172/96/93 189/100/93
f 186/85/94 187/97/94 172/96/94
f 186/85/95 181/84/95 187/97/95
f 181/84/96 171/137/96 187/97/96
f 184/82/97 185/138/97 174/102/97
f 184/82/98 182/81/98 185/138/98
f 182/81/99 169/139/99 185/138/99
f 181/79/100 183/94/100 171/93/100
f 181/79/101 182/78/101 183/94/101
f 182/78/102 170/80/102 183/94/102
