# ProBuilder 5.2.4
# https://unity3d.com/unity/features/worldbuilding/probuilder
# 11/28/2025 1:40:24 AM

mtllib ./StationFloor.mtl
o StationFloor

g StationFloor
v 6.5 -27 -293
v 6.5 -27 -294
v 5 -27 -293
v 5 -27 -294
v 6.5 -27 -295
v 5 -27 -295
v 6.5 -27 -296
v 5 -27 -296
v 6.5 -27 -297
v 5 -27 -297
v 6.5 -27 -298
v 5 -27 -298
v 4 -27 -296
v 4 -27 -297
v 4 -27 -298
v 3 -27 -296
v 3 -27 -297
v 3 -27 -298
v 2 -27 -297
v 2 -27 -298
v 0.5 -27 -298
v -0.5 -27 -298
v 0.5 -27 -297
v -0.5 -27 -297
v 1 -27 -298
v 1 -27 -297
v -1 -27 -295
v -2 -27 -295
v -1 -27 -294
v -2 -27 -294
v -1 -27 -293
v -2 -27 -293
v -0.5 -27 -294
v -0.5 -27 -293
v 0.5 -27 -294
v 0.5 -27 -293
v 7 -27 -282
v 7 -28 -282
v 7 -27 -283
v 7 -28 -283
v 7 -27 -284
v 7 -28 -284
v 7 -27 -285
v 7 -28 -285
v 7 -27 -286
v 7 -28 -286
v 7 -27 -287
v 7 -28 -287
v 7 -27 -288
v 7 -28 -288
v 7 -27 -289
v 7 -28 -289
v 7 -27 -290
v 7 -28 -290
v 7 -27 -291
v 7 -28 -291
v 7 -27 -292
v 7 -28 -292
v 6 -27 -282
v 6 -27 -283
v 6 -27 -284
v 6 -27 -285
v 6 -27 -286
v 6 -27 -287
v 6 -27 -288
v 6 -27 -289
v 6 -27 -290
v 6 -27 -291
v 6 -27 -292
v 5 -27 -282
v 5 -27 -283
v 5 -27 -284
v 5 -27 -285
v 5 -27 -286
v 5 -27 -287
v 5 -27 -288
v 5 -27 -289
v 5 -27 -290
v 5 -27 -291
v 5 -27 -292
v 6.5 -27 -292
v 4 -27 -282
v 4 -27 -283
v 4 -27 -284
v 4 -27 -285
v 4 -27 -286
v 4 -27 -287
v 4 -27 -288
v 4 -27 -289
v 4 -27 -290
v 4 -27 -291
v 4 -27 -292
v 4 -27 -293
v 4 -27 -294
v 4 -27 -295
v 3 -27 -282
v 3 -27 -283
v 3 -27 -284
v 3 -27 -285
v 3 -27 -286
v 3 -27 -287
v 3 -27 -288
v 3 -27 -289
v 3 -27 -290
v 3 -27 -291
v 3 -27 -292
v 3 -27 -293
v 3 -27 -294
v 3 -27 -295
v 2 -27 -282
v 2 -27 -283
v 2 -27 -284
v 2 -27 -285
v 2 -27 -286
v 2 -27 -287
v 2 -27 -288
v 2 -27 -289
v 2 -27 -290
v 2 -27 -291
v 2 -27 -292
v 2 -27 -293
v 2 -27 -294
v 2 -27 -295
v 2 -27 -296
v -1 -27 -298
v -2 -27 -298
v -1 -27 -297
v -2 -27 -297
v -1 -27 -296
v -2 -27 -296
v -0.5 -27 -296
v 0.5 -27 -296
v 1 -27 -296
v -0.5 -27 -295
v 0.5 -27 -295
v 1 -27 -295
v 1 -27 -294
v 1 -27 -293
v 0.5 -27 1
v -0.5 -27 1
v 0.5 -27 2
v -0.5 -27 2
v -1 -27 2
v -1 -27 1
v 1 -27 1
v 1 -27 2
v 0.5 -27 3
v -0.5 -27 3
v -1 -27 3
v 1 -27 3
v -2 -27 2
v -2 -27 1
v -2 -27 3
v 2 -27 1
v 2 -27 2
v 2 -27 3
v -1 -27 4
v -2 -27 4
v -0.5 -27 4
v 0.5 -27 4
v 1 -27 4
v 2 -27 4
v -1 -27 5
v -2 -27 5
v -0.5 -27 5
v 0.5 -27 5
v 1 -27 5
v 2 -27 5
v -1 -27 6
v -2 -27 6
v -0.5 -27 6
v 0.5 -27 6
v 1 -27 6
v 2 -27 6
v 3 -27 1
v 3 -27 2
v 3 -27 3
v 3 -27 4
v 4 -27 1
v 4 -27 2
v 4 -27 3
v 4 -27 4
v 5 -27 1
v 5 -27 2
v 5 -27 3
v 5 -27 4
v 3 -27 5
v 3 -27 6
v 4 -27 5
v 4 -27 6
v 5 -27 5
v 5 -27 6
v 6 -27 1
v 6 -27 2
v 6 -27 3
v 6 -27 4
v 6 -27 5
v 6 -27 6
v 7 -27 1
v 7 -27 2
v 7 -27 3
v 7 -27 4
v 7 -27 5
v 7 -27 6
v 6 -27 0
v 7 -27 0
v 5 -27 0
v 4 -27 0
v 3 -27 0
v 2 -27 0
v 6 -27 -1
v 7 -27 -1
v 5 -27 -1
v 4 -27 -1
v 3 -27 -1
v 2 -27 -1
v 6 -27 -2
v 7 -27 -2
v 5 -27 -2
v 4 -27 -2
v 3 -27 -2
v 2 -27 -2
v 6 -27 -3
v 7 -27 -3
v 5 -27 -3
v 4 -27 -3
v 3 -27 -3
v 2 -27 -3
v 6 -27 -4
v 7 -27 -4
v 5 -27 -4
v 4 -27 -4
v 3 -27 -4
v 2 -27 -4
v 6 -27 -5
v 7 -27 -5
v 5 -27 -5
v 4 -27 -5
v 3 -27 -5
v 2 -27 -5
v 6 -27 -6
v 7 -27 -6
v 5 -27 -6
v 4 -27 -6
v 3 -27 -6
v 2 -27 -6
v 6 -27 -7
v 7 -27 -7
v 5 -27 -7
v 4 -27 -7
v 3 -27 -7
v 2 -27 -7
v 6 -27 -8
v 7 -27 -8
v 5 -27 -8
v 4 -27 -8
v 3 -27 -8
v 2 -27 -8
v 7 -28 -1
v 7 -28 0
v 7 -28 -2
v 7 -28 -3
v 7 -28 -4
v 7 -28 -5
v 7 -28 -6
v 7 -28 -7
v 7 -28 -8
v 7 -27 -9
v 7 -28 -9
v 6 -27 -9
v 5 -27 -9
v 4 -27 -9
v 3 -27 -9
v 2 -27 -9
v 7 -27 -10
v 7 -28 -10
v 6 -27 -10
v 5 -27 -10
v 4 -27 -10
v 3 -27 -10
v 2 -27 -10
v 3 -27 -14
v 3 -27 -13
v 4 -27 -14
v 4 -27 -13
v 3 -27 -15
v 4 -27 -15
v 3 -27 -16
v 4 -27 -16
v 3 -27 -17
v 4 -27 -17
v 3 -27 -18
v 4 -27 -18
v 3 -27 -19
v 4 -27 -19
v 3 -27 -20
v 4 -27 -20
v 5 -27 -14
v 5 -27 -13
v 5 -27 -15
v 5 -27 -16
v 5 -27 -17
v 5 -27 -18
v 5 -27 -19
v 5 -27 -20
v 6 -27 -14
v 6 -27 -13
v 6 -27 -15
v 6 -27 -16
v 6 -27 -17
v 6 -27 -18
v 6 -27 -19
v 6 -27 -20
v 7 -27 -14
v 7 -27 -13
v 7 -27 -15
v 7 -27 -16
v 7 -27 -17
v 7 -27 -18
v 7 -27 -19
v 7 -27 -20
v 7 -28 -14
v 7 -28 -13
v 7 -28 -15
v 7 -28 -16
v 7 -28 -17
v 7 -28 -18
v 7 -28 -19
v 7 -28 -20
v 16 -28 -31
v 16 -27 -31
v 16 -28 -32
v 16 -27 -32
v 16 -28 -33
v 16 -27 -33
v 16 -28 -34
v 16 -27 -34
v 8 -28 -30
v 8 -27 -30
v 8 -28 -31
v 8 -27 -31
v 8 -28 -32
v 8 -27 -32
v 16 -28 -35
v 16 -27 -35
v 9 -27 -30
v 9 -27 -31
v 10 -27 -30
v 10 -27 -31
v 10 -27 -32
v 9 -27 -32
v 10 -27 -33
v 9 -27 -33
v 10 -27 -34
v 9 -27 -34
v 17 -27 -34
v 17 -27 -35
v 17 -27 -33
v 17 -27 -31
v 17 -27 -32
v 18 -27 -34
v 18 -27 -35
v 18 -27 -33
v 18 -27 -31
v 18 -27 -32
v 19 -27 -33
v 19 -27 -34
v 20 -27 -33
v 20 -27 -34
v 10.25 -27 -31
v 10.25 -27 -30
v 10.25 -27 -32
v 10.5 -27 -31
v 10.5 -27 -30
v 10.5 -27 -32
v 10.75 -27 -31
v 10.75 -27 -30
v 10.75 -27 -32

vt -6.5 -204.5
vt -6.5 -205.5
vt -5 -204.5
vt -5 -205.5
vt -6.5 -206.5
vt -5 -206.5
vt -6.5 -207.5
vt -5 -207.5
vt -6.5 -208.5
vt -5 -208.5
vt -6.5 -209.5
vt -5 -209.5
vt -4 -207.5
vt -4 -208.5
vt -4 -209.5
vt -3 -207.5
vt -3 -208.5
vt -3 -209.5
vt -2 -208.5
vt -2 -209.5
vt -0.5 -209.5
vt 0.5 -209.5
vt -0.5 -208.5
vt 0.5 -208.5
vt -1 -209.5
vt -1 -208.5
vt 1 -206.5
vt 2 -206.5
vt 1 -205.5
vt 2 -205.5
vt 1 -204.5
vt 2 -204.5
vt 0.5 -205.5
vt 0.5 -204.5
vt -0.5 -205.5
vt -0.5 -204.5
vt 193.5 -27
vt 193.5 -28
vt 194.5 -27
vt 194.5 -28
vt 195.5 -27
vt 195.5 -28
vt 196.5 -27
vt 196.5 -28
vt 197.5 -27
vt 197.5 -28
vt 198.5 -27
vt 198.5 -28
vt 199.5 -27
vt 199.5 -28
vt 200.5 -27
vt 200.5 -28
vt 201.5 -27
vt 201.5 -28
vt 202.5 -27
vt 202.5 -28
vt 203.5 -27
vt 203.5 -28
vt -7 -193.5
vt -7 -194.5
vt -6 -193.5
vt -6 -194.5
vt -7 -195.5
vt -6 -195.5
vt -7 -196.5
vt -6 -196.5
vt -7 -197.5
vt -6 -197.5
vt -7 -198.5
vt -6 -198.5
vt -7 -199.5
vt -6 -199.5
vt -7 -200.5
vt -6 -200.5
vt -7 -201.5
vt -6 -201.5
vt -7 -202.5
vt -6 -202.5
vt -7 -203.5
vt -6 -203.5
vt -5 -193.5
vt -5 -194.5
vt -5 -195.5
vt -5 -196.5
vt -5 -197.5
vt -5 -198.5
vt -5 -199.5
vt -5 -200.5
vt -5 -201.5
vt -5 -202.5
vt -5 -203.5
vt -6.5 -203.5
vt -4 -193.5
vt -4 -194.5
vt -4 -195.5
vt -4 -196.5
vt -4 -197.5
vt -4 -198.5
vt -4 -199.5
vt -4 -200.5
vt -4 -201.5
vt -4 -202.5
vt -4 -203.5
vt -4 -204.5
vt -4 -205.5
vt -4 -206.5
vt -3 -193.5
vt -3 -194.5
vt -3 -195.5
vt -3 -196.5
vt -3 -197.5
vt -3 -198.5
vt -3 -199.5
vt -3 -200.5
vt -3 -201.5
vt -3 -202.5
vt -3 -203.5
vt -3 -204.5
vt -3 -205.5
vt -3 -206.5
vt -2 -193.5
vt -2 -194.5
vt -2 -195.5
vt -2 -196.5
vt -2 -197.5
vt -2 -198.5
vt -2 -199.5
vt -2 -200.5
vt -2 -201.5
vt -2 -202.5
vt -2 -203.5
vt -2 -204.5
vt -2 -205.5
vt -2 -206.5
vt -2 -207.5
vt 1 -209.5
vt 2 -209.5
vt 1 -208.5
vt 2 -208.5
vt 1 -207.5
vt 2 -207.5
vt 0.5 -207.5
vt -0.5 -207.5
vt -1 -207.5
vt 0.5 -206.5
vt -0.5 -206.5
vt -1 -206.5
vt -1 -205.5
vt -1 -204.5
vt -0.5 1
vt 0.5 1
vt -0.5 2
vt 0.5 2
vt 1 2
vt 1 1
vt -1 1
vt -1 2
vt -0.5 3
vt 0.5 3
vt 1 3
vt -1 3
vt 2 2
vt 2 1
vt 2 3
vt -2 1
vt -2 2
vt -2 3
vt 1 4
vt 2 4
vt 0.5 4
vt -0.5 4
vt -1 4
vt -2 4
vt 1 5
vt 2 5
vt 0.5 5
vt -0.5 5
vt -1 5
vt -2 5
vt 1 6
vt 2 6
vt 0.5 6
vt -0.5 6
vt -1 6
vt -2 6
vt -3 1
vt -3 2
vt -3 3
vt -3 4
vt -4 1
vt -4 2
vt -4 3
vt -4 4
vt -5 1
vt -5 2
vt -5 3
vt -5 4
vt -3 5
vt -3 6
vt -4 5
vt -4 6
vt -5 5
vt -5 6
vt -6 1
vt -6 2
vt -6 3
vt -6 4
vt -6 5
vt -6 6
vt -7 1
vt -7 2
vt -7 3
vt -7 4
vt -7 5
vt -7 6
vt -6 0
vt -7 0
vt -5 0
vt -4 0
vt -3 0
vt -2 0
vt -6 -1
vt -7 -1
vt -5 -1
vt -4 -1
vt -3 -1
vt -2 -1
vt -6 -2
vt -7 -2
vt -5 -2
vt -4 -2
vt -3 -2
vt -2 -2
vt -6 -3
vt -7 -3
vt -5 -3
vt -4 -3
vt -3 -3
vt -2 -3
vt -6 -4
vt -7 -4
vt -5 -4
vt -4 -4
vt -3 -4
vt -2 -4
vt -6 -5
vt -7 -5
vt -5 -5
vt -4 -5
vt -3 -5
vt -2 -5
vt -6 -6
vt -7 -6
vt -5 -6
vt -4 -6
vt -3 -6
vt -2 -6
vt -6 -7
vt -7 -7
vt -5 -7
vt -4 -7
vt -3 -7
vt -2 -7
vt -6 -8
vt -7 -8
vt -5 -8
vt -4 -8
vt -3 -8
vt -2 -8
vt 1 -27
vt 0 -27
vt 1 -28
vt 0 -28
vt 2 -27
vt 2 -28
vt 3 -27
vt 3 -28
vt 4 -27
vt 4 -28
vt 5 -27
vt 5 -28
vt 6 -27
vt 6 -28
vt 7 -27
vt 7 -28
vt 8 -27
vt 8 -28
vt 9 -27
vt 9 -28
vt -6 -9
vt -7 -9
vt -5 -9
vt -4 -9
vt -3 -9
vt -2 -9
vt 10 -27
vt 10 -28
vt -6 -10
vt -7 -10
vt -5 -10
vt -4 -10
vt -3 -10
vt -2 -10
vt -3 -14
vt -3 -13
vt -4 -14
vt -4 -13
vt -3 -15
vt -4 -15
vt -3 -16
vt -4 -16
vt -3 -17
vt -4 -17
vt -3 -18
vt -4 -18
vt -3 -19
vt -4 -19
vt -3 -20
vt -4 -20
vt -5 -14
vt -5 -13
vt -5 -15
vt -5 -16
vt -5 -17
vt -5 -18
vt -5 -19
vt -5 -20
vt -6 -14
vt -6 -13
vt -6 -15
vt -6 -16
vt -6 -17
vt -6 -18
vt -6 -19
vt -6 -20
vt -7 -14
vt -7 -13
vt -7 -15
vt -7 -16
vt -7 -17
vt -7 -18
vt -7 -19
vt -7 -20
vt 14 -27
vt 13 -27
vt 14 -28
vt 13 -28
vt 15 -27
vt 15 -28
vt 16 -27
vt 16 -28
vt 17 -27
vt 17 -28
vt 18 -27
vt 18 -28
vt 19 -27
vt 19 -28
vt 20 -27
vt 20 -28
vt -31 -28
vt -31 -27
vt -32 -28
vt -32 -27
vt -33 -28
vt -33 -27
vt -34 -28
vt -34 -27
vt -30 -28
vt -30 -27
vt -35 -28
vt -35 -27
vt -8 -30
vt -8 -31
vt -9 -30
vt -9 -31
vt -10 -30
vt -10 -31
vt -10 -32
vt -9 -32
vt -8 -32
vt -10 -33
vt -9 -33
vt -10 -34
vt -9 -34
vt -16 -34
vt -16 -35
vt -17 -34
vt -17 -35
vt -16 -33
vt -17 -33
vt -16 -31
vt -16 -32
vt -17 -31
vt -17 -32
vt -18 -34
vt -18 -35
vt -18 -33
vt -18 -31
vt -18 -32
vt -19 -33
vt -19 -34
vt -20 -33
vt -20 -34
vt -10.25 -31
vt -10.25 -30
vt -10.25 -32
vt -10.5 -31
vt -10.5 -30
vt -10.5 -32
vt -10.75 -31
vt -10.75 -30
vt -10.75 -32

vn 0 1 0
vn 1 0 0
vn -1 0 0

usemtl ProBuilderDefault
f 4/4/1 3/3/1 1/1/1 2/2/1
f 6/6/1 4/4/1 2/2/1 5/5/1
f 8/8/1 6/6/1 5/5/1 7/7/1
f 10/10/1 8/8/1 7/7/1 9/9/1
f 12/12/1 10/10/1 9/9/1 11/11/1
f 14/14/1 13/13/1 8/8/1 10/10/1
f 15/15/1 14/14/1 10/10/1 12/12/1
f 17/17/1 16/16/1 13/13/1 14/14/1
f 18/18/1 17/17/1 14/14/1 15/15/1
f 20/20/1 19/19/1 17/17/1 18/18/1
f 24/24/1 23/23/1 21/21/1 22/22/1
f 23/23/1 26/26/1 25/25/1 21/21/1
f 26/26/1 19/19/1 20/20/1 25/25/1
f 30/30/1 29/29/1 27/27/1 28/28/1
f 32/32/1 31/31/1 29/29/1 30/30/1
f 31/31/1 34/34/1 33/33/1 29/29/1
f 34/34/1 36/36/1 35/35/1 33/33/1
f 40/40/2 39/39/2 37/37/2 38/38/2
f 42/42/2 41/41/2 39/39/2 40/40/2
f 44/44/2 43/43/2 41/41/2 42/42/2
f 46/46/2 45/45/2 43/43/2 44/44/2
f 48/48/2 47/47/2 45/45/2 46/46/2
f 50/50/2 49/49/2 47/47/2 48/48/2
f 52/52/2 51/51/2 49/49/2 50/50/2
f 54/54/2 53/53/2 51/51/2 52/52/2
f 56/56/2 55/55/2 53/53/2 54/54/2
f 58/58/2 57/57/2 55/55/2 56/56/2
f 60/62/1 59/61/1 37/59/1 39/60/1
f 61/64/1 60/62/1 39/60/1 41/63/1
f 62/66/1 61/64/1 41/63/1 43/65/1
f 63/68/1 62/66/1 43/65/1 45/67/1
f 64/70/1 63/68/1 45/67/1 47/69/1
f 65/72/1 64/70/1 47/69/1 49/71/1
f 66/74/1 65/72/1 49/71/1 51/73/1
f 67/76/1 66/74/1 51/73/1 53/75/1
f 68/78/1 67/76/1 53/75/1 55/77/1
f 69/80/1 68/78/1 55/77/1 57/79/1
f 71/82/1 70/81/1 59/61/1 60/62/1
f 72/83/1 71/82/1 60/62/1 61/64/1
f 73/84/1 72/83/1 61/64/1 62/66/1
f 74/85/1 73/84/1 62/66/1 63/68/1
f 75/86/1 74/85/1 63/68/1 64/70/1
f 76/87/1 75/86/1 64/70/1 65/72/1
f 77/88/1 76/87/1 65/72/1 66/74/1
f 78/89/1 77/88/1 66/74/1 67/76/1
f 79/90/1 78/89/1 67/76/1 68/78/1
f 80/91/1 79/90/1 68/78/1 69/80/1
f 3/3/1 80/91/1 81/92/1 1/1/1
f 83/94/1 82/93/1 70/81/1 71/82/1
f 84/95/1 83/94/1 71/82/1 72/83/1
f 85/96/1 84/95/1 72/83/1 73/84/1
f 86/97/1 85/96/1 73/84/1 74/85/1
f 87/98/1 86/97/1 74/85/1 75/86/1
f 88/99/1 87/98/1 75/86/1 76/87/1
f 89/100/1 88/99/1 76/87/1 77/88/1
f 90/101/1 89/100/1 77/88/1 78/89/1
f 91/102/1 90/101/1 78/89/1 79/90/1
f 92/103/1 91/102/1 79/90/1 80/91/1
f 93/104/1 92/103/1 80/91/1 3/3/1
f 94/105/1 93/104/1 3/3/1 4/4/1
f 95/106/1 94/105/1 4/4/1 6/6/1
f 13/13/1 95/106/1 6/6/1 8/8/1
f 97/108/1 96/107/1 82/93/1 83/94/1
f 98/109/1 97/108/1 83/94/1 84/95/1
f 99/110/1 98/109/1 84/95/1 85/96/1
f 100/111/1 99/110/1 85/96/1 86/97/1
f 101/112/1 100/111/1 86/97/1 87/98/1
f 102/113/1 101/112/1 87/98/1 88/99/1
f 103/114/1 102/113/1 88/99/1 89/100/1
f 104/115/1 103/114/1 89/100/1 90/101/1
f 105/116/1 104/115/1 90/101/1 91/102/1
f 106/117/1 105/116/1 91/102/1 92/103/1
f 107/118/1 106/117/1 92/103/1 93/104/1
f 108/119/1 107/118/1 93/104/1 94/105/1
f 109/120/1 108/119/1 94/105/1 95/106/1
f 16/16/1 109/120/1 95/106/1 13/13/1
f 111/122/1 110/121/1 96/107/1 97/108/1
f 112/123/1 111/122/1 97/108/1 98/109/1
f 113/124/1 112/123/1 98/109/1 99/110/1
f 114/125/1 113/124/1 99/110/1 100/111/1
f 115/126/1 114/125/1 100/111/1 101/112/1
f 116/127/1 115/126/1 101/112/1 102/113/1
f 117/128/1 116/127/1 102/113/1 103/114/1
f 118/129/1 117/128/1 103/114/1 104/115/1
f 119/130/1 118/129/1 104/115/1 105/116/1
f 120/131/1 119/130/1 105/116/1 106/117/1
f 121/132/1 120/131/1 106/117/1 107/118/1
f 122/133/1 121/132/1 107/118/1 108/119/1
f 123/134/1 122/133/1 108/119/1 109/120/1
f 124/135/1 123/134/1 109/120/1 16/16/1
f 19/19/1 124/135/1 16/16/1 17/17/1
f 128/139/1 127/138/1 125/136/1 126/137/1
f 127/138/1 24/24/1 22/22/1 125/136/1
f 130/141/1 129/140/1 127/138/1 128/139/1
f 129/140/1 131/142/1 24/24/1 127/138/1
f 131/142/1 132/143/1 23/23/1 24/24/1
f 132/143/1 133/144/1 26/26/1 23/23/1
f 133/144/1 124/135/1 19/19/1 26/26/1
f 28/28/1 27/27/1 129/140/1 130/141/1
f 27/27/1 134/145/1 131/142/1 129/140/1
f 134/145/1 135/146/1 132/143/1 131/142/1
f 135/146/1 136/147/1 133/144/1 132/143/1
f 136/147/1 123/134/1 124/135/1 133/144/1
f 29/29/1 33/33/1 134/145/1 27/27/1
f 33/33/1 35/35/1 135/146/1 134/145/1
f 35/35/1 137/148/1 136/147/1 135/146/1
f 137/148/1 122/133/1 123/134/1 136/147/1
f 36/36/1 138/149/1 137/148/1 35/35/1
f 138/149/1 121/132/1 122/133/1 137/148/1
f 142/153/1 141/152/1 139/150/1 140/151/1
f 144/155/1 143/154/1 142/153/1 140/151/1
f 146/157/1 145/156/1 139/150/1 141/152/1
f 148/159/1 147/158/1 141/152/1 142/153/1
f 149/160/1 148/159/1 142/153/1 143/154/1
f 147/158/1 150/161/1 146/157/1 141/152/1
f 152/163/1 151/162/1 143/154/1 144/155/1
f 151/162/1 153/164/1 149/160/1 143/154/1
f 155/166/1 154/165/1 145/156/1 146/157/1
f 156/167/1 155/166/1 146/157/1 150/161/1
f 158/169/1 157/168/1 149/160/1 153/164/1
f 157/168/1 159/170/1 148/159/1 149/160/1
f 159/170/1 160/171/1 147/158/1 148/159/1
f 160/171/1 161/172/1 150/161/1 147/158/1
f 161/172/1 162/173/1 156/167/1 150/161/1
f 164/175/1 163/174/1 157/168/1 158/169/1
f 163/174/1 165/176/1 159/170/1 157/168/1
f 165/176/1 166/177/1 160/171/1 159/170/1
f 166/177/1 167/178/1 161/172/1 160/171/1
f 167/178/1 168/179/1 162/173/1 161/172/1
f 170/181/1 169/180/1 163/174/1 164/175/1
f 169/180/1 171/182/1 165/176/1 163/174/1
f 171/182/1 172/183/1 166/177/1 165/176/1
f 172/183/1 173/184/1 167/178/1 166/177/1
f 173/184/1 174/185/1 168/179/1 167/178/1
f 176/187/1 175/186/1 154/165/1 155/166/1
f 177/188/1 176/187/1 155/166/1 156/167/1
f 178/189/1 177/188/1 156/167/1 162/173/1
f 180/191/1 179/190/1 175/186/1 176/187/1
f 181/192/1 180/191/1 176/187/1 177/188/1
f 182/193/1 181/192/1 177/188/1 178/189/1
f 184/195/1 183/194/1 179/190/1 180/191/1
f 185/196/1 184/195/1 180/191/1 181/192/1
f 186/197/1 185/196/1 181/192/1 182/193/1
f 188/199/1 187/198/1 168/179/1 174/185/1
f 187/198/1 178/189/1 162/173/1 168/179/1
f 190/201/1 189/200/1 187/198/1 188/199/1
f 189/200/1 182/193/1 178/189/1 187/198/1
f 192/203/1 191/202/1 189/200/1 190/201/1
f 191/202/1 186/197/1 182/193/1 189/200/1
f 194/205/1 193/204/1 183/194/1 184/195/1
f 196/207/1 195/206/1 185/196/1 186/197/1
f 197/208/1 196/207/1 186/197/1 191/202/1
f 195/206/1 194/205/1 184/195/1 185/196/1
f 198/209/1 197/208/1 191/202/1 192/203/1
f 200/211/1 199/210/1 193/204/1 194/205/1
f 202/213/1 201/212/1 195/206/1 196/207/1
f 203/214/1 202/213/1 196/207/1 197/208/1
f 201/212/1 200/211/1 194/205/1 195/206/1
f 204/215/1 203/214/1 197/208/1 198/209/1
f 206/217/1 205/216/1 193/204/1 199/210/1
f 205/216/1 207/218/1 183/194/1 193/204/1
f 207/218/1 208/219/1 179/190/1 183/194/1
f 208/219/1 209/220/1 175/186/1 179/190/1
f 209/220/1 210/221/1 154/165/1 175/186/1
f 212/223/1 211/222/1 205/216/1 206/217/1
f 211/222/1 213/224/1 207/218/1 205/216/1
f 213/224/1 214/225/1 208/219/1 207/218/1
f 214/225/1 215/226/1 209/220/1 208/219/1
f 215/226/1 216/227/1 210/221/1 209/220/1
f 218/229/1 217/228/1 211/222/1 212/223/1
f 217/228/1 219/230/1 213/224/1 211/222/1
f 219/230/1 220/231/1 214/225/1 213/224/1
f 220/231/1 221/232/1 215/226/1 214/225/1
f 221/232/1 222/233/1 216/227/1 215/226/1
f 224/235/1 223/234/1 217/228/1 218/229/1
f 223/234/1 225/236/1 219/230/1 217/228/1
f 225/236/1 226/237/1 220/231/1 219/230/1
f 226/237/1 227/238/1 221/232/1 220/231/1
f 227/238/1 228/239/1 222/233/1 221/232/1
f 230/241/1 229/240/1 223/234/1 224/235/1
f 229/240/1 231/242/1 225/236/1 223/234/1
f 231/242/1 232/243/1 226/237/1 225/236/1
f 232/243/1 233/244/1 227/238/1 226/237/1
f 233/244/1 234/245/1 228/239/1 227/238/1
f 236/247/1 235/246/1 229/240/1 230/241/1
f 235/246/1 237/248/1 231/242/1 229/240/1
f 237/248/1 238/249/1 232/243/1 231/242/1
f 238/249/1 239/250/1 233/244/1 232/243/1
f 239/250/1 240/251/1 234/245/1 233/244/1
f 242/253/1 241/252/1 235/246/1 236/247/1
f 241/252/1 243/254/1 237/248/1 235/246/1
f 243/254/1 244/255/1 238/249/1 237/248/1
f 244/255/1 245/256/1 239/250/1 238/249/1
f 245/256/1 246/257/1 240/251/1 239/250/1
f 248/259/1 247/258/1 241/252/1 242/253/1
f 247/258/1 249/260/1 243/254/1 241/252/1
f 249/260/1 250/261/1 244/255/1 243/254/1
f 250/261/1 251/262/1 245/256/1 244/255/1
f 251/262/1 252/263/1 246/257/1 245/256/1
f 254/265/1 253/264/1 247/258/1 248/259/1
f 253/264/1 255/266/1 249/260/1 247/258/1
f 255/266/1 256/267/1 250/261/1 249/260/1
f 256/267/1 257/268/1 251/262/1 250/261/1
f 257/268/1 258/269/1 252/263/1 251/262/1
f 260/273/2 259/272/2 212/270/2 206/271/2
f 259/272/2 261/275/2 218/274/2 212/270/2
f 261/275/2 262/277/2 224/276/2 218/274/2
f 262/277/2 263/279/2 230/278/2 224/276/2
f 263/279/2 264/281/2 236/280/2 230/278/2
f 264/281/2 265/283/2 242/282/2 236/280/2
f 265/283/2 266/285/2 248/284/2 242/282/2
f 266/285/2 267/287/2 254/286/2 248/284/2
f 269/289/2 268/288/2 254/286/2 267/287/2
f 268/291/1 270/290/1 253/264/1 254/265/1
f 270/290/1 271/292/1 255/266/1 253/264/1
f 271/292/1 272/293/1 256/267/1 255/266/1
f 272/293/1 273/294/1 257/268/1 256/267/1
f 273/294/1 274/295/1 258/269/1 257/268/1
f 276/297/2 275/296/2 268/288/2 269/289/2
f 275/299/1 277/298/1 270/290/1 268/291/1
f 277/298/1 278/300/1 271/292/1 270/290/1
f 278/300/1 279/301/1 272/293/1 271/292/1
f 279/301/1 280/302/1 273/294/1 272/293/1
f 280/302/1 281/303/1 274/295/1 273/294/1
f 285/307/1 284/306/1 282/304/1 283/305/1
f 284/306/1 287/309/1 286/308/1 282/304/1
f 287/309/1 289/311/1 288/310/1 286/308/1
f 289/311/1 291/313/1 290/312/1 288/310/1
f 291/313/1 293/315/1 292/314/1 290/312/1
f 293/315/1 295/317/1 294/316/1 292/314/1
f 295/317/1 297/319/1 296/318/1 294/316/1
f 299/321/1 298/320/1 284/306/1 285/307/1
f 298/320/1 300/322/1 287/309/1 284/306/1
f 300/322/1 301/323/1 289/311/1 287/309/1
f 301/323/1 302/324/1 291/313/1 289/311/1
f 302/324/1 303/325/1 293/315/1 291/313/1
f 303/325/1 304/326/1 295/317/1 293/315/1
f 304/326/1 305/327/1 297/319/1 295/317/1
f 307/329/1 306/328/1 298/320/1 299/321/1
f 306/328/1 308/330/1 300/322/1 298/320/1
f 308/330/1 309/331/1 301/323/1 300/322/1
f 309/331/1 310/332/1 302/324/1 301/323/1
f 310/332/1 311/333/1 303/325/1 302/324/1
f 311/333/1 312/334/1 304/326/1 303/325/1
f 312/334/1 313/335/1 305/327/1 304/326/1
f 315/337/1 314/336/1 306/328/1 307/329/1
f 314/336/1 316/338/1 308/330/1 306/328/1
f 316/338/1 317/339/1 309/331/1 308/330/1
f 317/339/1 318/340/1 310/332/1 309/331/1
f 318/340/1 319/341/1 311/333/1 310/332/1
f 319/341/1 320/342/1 312/334/1 311/333/1
f 320/342/1 321/343/1 313/335/1 312/334/1
f 323/347/2 322/346/2 314/344/2 315/345/2
f 322/346/2 324/349/2 316/348/2 314/344/2
f 324/349/2 325/351/2 317/350/2 316/348/2
f 325/351/2 326/353/2 318/352/2 317/350/2
f 326/353/2 327/355/2 319/354/2 318/352/2
f 327/355/2 328/357/2 320/356/2 319/354/2
f 328/357/2 329/359/2 321/358/2 320/356/2
f 333/363/3 332/362/3 330/360/3 331/361/3
f 335/365/3 334/364/3 332/362/3 333/363/3
f 337/367/3 336/366/3 334/364/3 335/365/3
f 341/361/3 340/360/3 338/368/3 339/369/3
f 343/363/3 342/362/3 340/360/3 341/361/3
f 345/371/3 344/370/3 336/366/3 337/367/3
f 346/374/1 347/375/1 341/373/1 339/372/1
f 348/376/1 349/377/1 347/375/1 346/374/1
f 350/378/1 351/379/1 347/375/1 349/377/1
f 351/379/1 343/380/1 341/373/1 347/375/1
f 352/381/1 353/382/1 351/379/1 350/378/1
f 354/383/1 355/384/1 353/382/1 352/381/1
f 356/387/1 357/388/1 345/386/1 337/385/1
f 358/390/1 356/387/1 337/385/1 335/389/1
f 359/393/1 360/394/1 333/392/1 331/391/1
f 360/394/1 358/390/1 335/389/1 333/392/1
f 361/395/1 362/396/1 357/388/1 356/387/1
f 363/397/1 361/395/1 356/387/1 358/390/1
f 364/398/1 365/399/1 360/394/1 359/393/1
f 365/399/1 363/397/1 358/390/1 360/394/1
f 366/400/1 367/401/1 361/395/1 363/397/1
f 368/402/1 369/403/1 367/401/1 366/400/1
f 371/405/1 370/404/1 349/377/1 348/376/1
f 370/404/1 372/406/1 350/378/1 349/377/1
f 374/408/1 373/407/1 370/404/1 371/405/1
f 373/407/1 375/409/1 372/406/1 370/404/1
f 377/411/1 376/410/1 373/407/1 374/408/1
f 376/410/1 378/412/1 375/409/1 373/407/1

